<svg data-v-fde0c5aa="" xmlns="http://www.w3.org/2000/svg" viewBox="0 0 300 300" class="iconLeft"><!----><defs data-v-fde0c5aa=""><!----></defs><rect data-v-fde0c5aa="" fill="#231B6E" x="0" y="0" width="300px" height="300px" class="logo-background-square"></rect><defs data-v-fde0c5aa=""><!----></defs><g data-v-fde0c5aa="" id="d769aac0-7931-4331-8464-ad834b6d1aa7" fill="#ffffff" transform="matrix(2.1024207993298463,0,0,2.1024207993298463,85.16268364099686,132.0873748298102)"><path d="M4.27 13.94C6.29 13.94 7.52 12.78 7.52 11.31C7.52 9.94 6.61 9.34 5.49 8.85L4.20 8.29C3.42 7.95 2.56 7.63 2.56 6.75C2.56 5.91 3.28 5.39 4.38 5.39C5.29 5.39 5.99 5.73 6.59 6.26L7.21 5.50C6.54 4.83 5.53 4.37 4.38 4.37C2.63 4.37 1.37 5.40 1.37 6.82C1.37 8.16 2.44 8.83 3.36 9.20L4.68 9.77C5.61 10.18 6.33 10.46 6.33 11.41C6.33 12.32 5.59 12.92 4.28 12.92C3.28 12.92 2.32 12.46 1.64 11.76L0.94 12.57C1.76 13.41 2.93 13.94 4.27 13.94ZM12.60 13.96C14.39 13.96 15.96 12.59 15.96 10.22C15.96 7.83 14.39 6.47 12.60 6.47C10.81 6.47 9.24 7.83 9.24 10.22C9.24 12.59 10.81 13.96 12.60 13.96ZM12.60 13.01C11.30 13.01 10.43 11.89 10.43 10.22C10.43 8.55 11.30 7.42 12.60 7.42C13.90 7.42 14.77 8.55 14.77 10.22C14.77 11.89 13.90 13.01 12.60 13.01ZM21.64 13.96C22.65 13.96 23.60 13.54 24.35 12.84L23.84 12.10C23.27 12.60 22.57 13.01 21.73 13.01C20.16 13.01 19.11 11.89 19.11 10.22C19.11 8.55 20.19 7.42 21.76 7.42C22.47 7.42 23.06 7.73 23.62 8.26L24.19 7.52C23.63 6.94 22.82 6.47 21.71 6.47C19.66 6.47 17.92 7.83 17.92 10.22C17.92 12.59 19.52 13.96 21.64 13.96ZM29.68 5.04C30.23 5.04 30.66 4.65 30.66 4.07C30.66 3.49 30.23 3.08 29.68 3.08C29.13 3.08 28.70 3.49 28.70 4.07C28.70 4.65 29.13 5.04 29.68 5.04ZM26.60 13.78L33.04 13.78L33.04 12.82L30.39 12.82L30.39 6.64L26.60 6.64L26.60 7.57L29.25 7.57L29.25 12.82L26.60 12.82ZM37.04 13.96C38.01 13.96 38.98 13.41 39.73 12.80L39.77 12.80L39.87 13.78L40.81 13.78L40.81 9.38C40.81 7.63 39.91 6.47 38.05 6.47C36.86 6.47 35.85 7.03 35.31 7.49L35.76 8.29C36.25 7.87 36.97 7.42 37.86 7.42C39.17 7.42 39.63 8.27 39.66 9.25C36.15 9.56 34.73 10.33 34.73 11.94C34.73 13.22 35.77 13.96 37.04 13.96ZM37.35 13.03C36.57 13.03 35.85 12.68 35.85 11.86C35.85 10.89 36.75 10.28 39.66 10.02L39.66 11.94C38.89 12.64 38.12 13.03 37.35 13.03ZM47.68 13.96C48.43 13.96 48.90 13.76 49.52 13.52L49.22 12.66C48.72 12.89 48.33 13.01 47.94 13.01C47.12 13.01 46.61 12.54 46.61 11.49L46.61 3.60L43.13 3.60L43.13 4.54L45.46 4.54L45.46 11.41C45.46 13.09 46.24 13.96 47.68 13.96ZM60.23 13.78L61.39 13.78L61.39 10.11L63.04 10.11C65.06 10.11 66.43 9.20 66.43 7.25C66.43 5.22 65.07 4.54 63.04 4.54L60.23 4.54ZM61.39 9.16L61.39 5.47L62.89 5.47C64.48 5.47 65.27 5.91 65.27 7.25C65.27 8.57 64.50 9.16 62.89 9.16ZM69.24 13.78L70.39 13.78L70.39 9.56C71.20 8.06 72.17 7.50 73.19 7.50C73.72 7.50 73.98 7.57 74.45 7.76L74.72 6.76C74.30 6.54 73.88 6.47 73.37 6.47C72.11 6.47 71.05 7.20 70.34 8.34L70.29 8.34L70.20 6.64L69.24 6.64ZM79.80 13.96C81.59 13.96 83.16 12.59 83.16 10.22C83.16 7.83 81.59 6.47 79.80 6.47C78.01 6.47 76.44 7.83 76.44 10.22C76.44 12.59 78.01 13.96 79.80 13.96ZM79.80 13.01C78.50 13.01 77.63 11.89 77.63 10.22C77.63 8.55 78.50 7.42 79.80 7.42C81.10 7.42 81.97 8.55 81.97 10.22C81.97 11.89 81.10 13.01 79.80 13.01Z"></path></g><defs data-v-fde0c5aa=""><!----></defs><g data-v-fde0c5aa="" id="abc566fd-f316-4389-ac47-fdb0e2c6e9cd" stroke="none" fill="#1DC7DA" transform="matrix(0.7513962627896176,0,0,0.7513962627896176,39.99969867503309,132.84474663325733)"><switch><g><path clip-rule="evenodd" d="M38.575 29.039c-2.654-.971-6.576-3.109-9.15-.852l-2.641 2.236a41.324 41.324 0 0 1-6.529-5.311l-.205-.212a39.198 39.198 0 0 1-5.033-6.242l2.182-2.594c2.334-2.58.178-6.527-.801-9.203-1.73-4.73-2.207-7.078-7.873-6.846C6.87-.053 5.228.742 4.101 1.93c-9.75 10.254-.049 23.477 7.719 31.312 2.43 2.43 5.383-.469 2.932-2.918C9.94 25.471 4.024 18.395 4.188 11.131c.043-1.984 1.49-6.346 3.871-6.938l.236-.047.354.006c.73-.043 1.561-.066 2.262.123.443.588 3.295 8.516 3.252 8.914l-2.361 2.863c-.721.852-1.096 1.959-.955 3.074.115.926.529 1.518.529 1.518 1.609 2.564 3.594 5.021 5.727 7.16l.418.42c1.775 1.768 3.588 3.219 4.955 4.23a37.765 37.765 0 0 0 2.344 1.623c1.424.912 3.316.607 4.562-.445l2.734-2.305c.947-.102 8.072 2.602 9.127 3.398.123 1.213.039 2.059.039 2.059l.006.355-.049.234c-.059.24-.203.598-.586.961-10.08 9.586-18.438-7.184-26.164.545-1.951 1.951.973 4.877 2.924 2.926 1.221-1.219 2.791-1.426 5.516.289 3.547 2.23 7.17 3.385 11.467 3.287 4.156-.092 11.232-3.369 11.023-8.473.23-5.662-2.115-6.14-6.844-7.869zM10.421 40.543a2.56 2.56 0 1 0-.002 5.12 2.56 2.56 0 0 0 .002-5.12z"></path></g></switch></g><!----></svg>